<svg width="359" height="391" viewBox="0 0 359 391" fill="none" xmlns="http://www.w3.org/2000/svg">
<rect x="6.10352e-05" y="0.359131" width="358.244" height="377.952" rx="8" fill="#42032C"/>
<ellipse opacity="0.2" cx="233.276" cy="300.132" rx="124.969" ry="90.605" fill="#FCDDEC"/>
<ellipse opacity="0.2" cx="74.8675" cy="55.7576" rx="74.8675" ry="55.3985" fill="#FCDDEC"/>
<g opacity="0.8" clip-path="url(#clip0_2_1214)">
<path d="M81.8336 59.2413C82.3655 59.0808 82.8358 58.8037 83.1918 58.4409C83.5477 58.0781 83.7754 57.6439 83.8493 57.1871C83.9233 56.7302 83.8405 56.2686 83.6103 55.8539C83.3801 55.4391 83.0116 55.0877 82.5459 54.8388L43.2383 33.8737C42.7509 33.6136 42.178 33.4768 41.5893 33.4799C41.0006 33.4831 40.4217 33.6261 39.9232 33.8914C39.4246 34.1568 39.028 34.5331 38.7816 34.9744C38.5353 35.4158 38.4499 35.903 38.5359 36.3768L40.8409 49.0689C40.9373 49.5993 41.2437 50.0856 41.7135 50.4539C42.1833 50.8222 42.791 51.0527 43.4447 51.1103L57.1891 52.3278C57.9865 52.3984 58.7094 52.7256 59.1986 53.2373C59.6878 53.7491 59.9032 54.4034 59.7976 55.0565C59.6919 55.7095 59.2738 56.3077 58.6352 56.7195C57.9966 57.1314 57.1898 57.323 56.3923 57.2524L42.6479 56.0348C41.9944 55.9766 41.3303 56.0944 40.7563 56.3703C40.1823 56.6461 39.7295 57.0651 39.4665 57.5638L33.1808 69.4948C32.9458 69.94 32.873 70.4283 32.9712 70.9002C33.0694 71.3721 33.3343 71.8071 33.7337 72.1523C34.1332 72.4975 34.6498 72.7378 35.2206 72.8441C35.7914 72.9504 36.3917 72.9179 36.9484 72.7507L81.8332 59.2438L81.8336 59.2413Z" fill="#F5F3FF"/>
</g>
<g opacity="0.5" clip-path="url(#clip1_2_1214)">
<path d="M260.003 330.47C259.945 330.702 259.976 330.941 260.091 331.16C260.207 331.38 260.403 331.571 260.657 331.713C260.911 331.855 261.213 331.942 261.53 331.964C261.847 331.986 262.166 331.942 262.452 331.837L286.503 323.001C286.801 322.891 287.05 322.72 287.219 322.508C287.388 322.295 287.47 322.051 287.454 321.805C287.439 321.559 287.327 321.321 287.132 321.122C286.937 320.922 286.668 320.768 286.358 320.679L278.033 318.305C277.685 318.206 277.303 318.193 276.945 318.269C276.586 318.345 276.271 318.505 276.047 318.726L271.324 323.358C271.05 323.627 270.643 323.804 270.192 323.851C269.742 323.897 269.284 323.81 268.921 323.607C268.558 323.404 268.318 323.103 268.255 322.769C268.192 322.436 268.311 322.098 268.585 321.829L273.307 317.197C273.532 316.976 273.654 316.708 273.654 316.432C273.654 316.156 273.533 315.888 273.308 315.667L267.936 310.398C267.736 310.201 267.462 310.052 267.149 309.968C266.836 309.884 266.497 309.869 266.173 309.926C265.849 309.982 265.554 310.107 265.324 310.286C265.094 310.464 264.94 310.688 264.879 310.93L260.001 330.47L260.003 330.47Z" fill="#F5F3FF"/>
</g>
<rect x="34.0854" y="222.453" width="290" height="40" rx="3.5" fill="white"/>
<path d="M47.9374 237.231V240.493H51.4934V241.543H47.9374V244.903H51.9134V245.953H46.6634V236.181H51.9134V237.231H47.9374ZM57.5792 238.141C58.5125 238.141 59.2685 238.426 59.8472 238.995C60.4259 239.555 60.7152 240.367 60.7152 241.431V245.953H59.4552V241.613C59.4552 240.848 59.2639 240.265 58.8812 239.863C58.4985 239.453 57.9759 239.247 57.3132 239.247C56.6412 239.247 56.1045 239.457 55.7032 239.877C55.3112 240.297 55.1152 240.909 55.1152 241.711V245.953H53.8412V238.281H55.1152V239.373C55.3672 238.981 55.7079 238.678 56.1372 238.463C56.5759 238.249 57.0565 238.141 57.5792 238.141ZM64.3503 239.331V243.853C64.3503 244.227 64.4296 244.493 64.5883 244.651C64.7469 244.801 65.0223 244.875 65.4143 244.875H66.3523V245.953H65.2043C64.4949 245.953 63.9629 245.79 63.6083 245.463C63.2536 245.137 63.0763 244.6 63.0763 243.853V239.331H62.0823V238.281H63.0763V236.349H64.3503V238.281H66.3523V239.331H64.3503ZM74.8959 241.823C74.8959 242.066 74.8819 242.323 74.8539 242.593H68.7219C68.7685 243.349 69.0252 243.942 69.4919 244.371C69.9679 244.791 70.5419 245.001 71.2139 245.001C71.7645 245.001 72.2219 244.875 72.5859 244.623C72.9592 244.362 73.2205 244.017 73.3699 243.587H74.7419C74.5365 244.325 74.1259 244.927 73.5099 245.393C72.8939 245.851 72.1285 246.079 71.2139 246.079C70.4859 246.079 69.8325 245.916 69.2539 245.589C68.6845 245.263 68.2365 244.801 67.9099 244.203C67.5832 243.597 67.4199 242.897 67.4199 242.103C67.4199 241.31 67.5785 240.615 67.8959 240.017C68.2132 239.42 68.6565 238.963 69.2259 238.645C69.8045 238.319 70.4672 238.155 71.2139 238.155C71.9419 238.155 72.5859 238.314 73.1459 238.631C73.7059 238.949 74.1352 239.387 74.4339 239.947C74.7419 240.498 74.8959 241.123 74.8959 241.823ZM73.5799 241.557C73.5799 241.072 73.4725 240.657 73.2579 240.311C73.0432 239.957 72.7492 239.691 72.3759 239.513C72.0119 239.327 71.6059 239.233 71.1579 239.233C70.5139 239.233 69.9632 239.439 69.5059 239.849C69.0579 240.26 68.8012 240.829 68.7359 241.557H73.5799ZM77.8515 239.527C78.0755 239.089 78.3928 238.748 78.8035 238.505C79.2235 238.263 79.7322 238.141 80.3295 238.141V239.457H79.9935C78.5655 239.457 77.8515 240.232 77.8515 241.781V245.953H76.5775V238.281H77.8515V239.527ZM92.1406 238.281L87.5206 249.565H86.2046L87.7166 245.869L84.6226 238.281H86.0366L88.4446 244.497L90.8246 238.281H92.1406ZM96.7673 246.079C96.0486 246.079 95.3953 245.916 94.8073 245.589C94.2286 245.263 93.7713 244.801 93.4353 244.203C93.1086 243.597 92.9453 242.897 92.9453 242.103C92.9453 241.319 93.1133 240.629 93.4493 240.031C93.7946 239.425 94.2613 238.963 94.8493 238.645C95.4373 238.319 96.0953 238.155 96.8233 238.155C97.5513 238.155 98.2093 238.319 98.7973 238.645C99.3853 238.963 99.8473 239.42 100.183 240.017C100.529 240.615 100.701 241.31 100.701 242.103C100.701 242.897 100.524 243.597 100.169 244.203C99.8239 244.801 99.3526 245.263 98.7553 245.589C98.1579 245.916 97.4953 246.079 96.7673 246.079ZM96.7673 244.959C97.2246 244.959 97.6539 244.852 98.0553 244.637C98.4566 244.423 98.7786 244.101 99.0213 243.671C99.2733 243.242 99.3993 242.719 99.3993 242.103C99.3993 241.487 99.2779 240.965 99.0353 240.535C98.7926 240.106 98.4753 239.789 98.0833 239.583C97.6913 239.369 97.2666 239.261 96.8093 239.261C96.3426 239.261 95.9133 239.369 95.5213 239.583C95.1386 239.789 94.8306 240.106 94.5973 240.535C94.3639 240.965 94.2473 241.487 94.2473 242.103C94.2473 242.729 94.3593 243.256 94.5833 243.685C94.8166 244.115 95.1246 244.437 95.5073 244.651C95.8899 244.857 96.3099 244.959 96.7673 244.959ZM109.18 238.281V245.953H107.906V244.819C107.664 245.211 107.323 245.519 106.884 245.743C106.455 245.958 105.979 246.065 105.456 246.065C104.859 246.065 104.322 245.944 103.846 245.701C103.37 245.449 102.992 245.076 102.712 244.581C102.442 244.087 102.306 243.485 102.306 242.775V238.281H103.566V242.607C103.566 243.363 103.758 243.947 104.14 244.357C104.523 244.759 105.046 244.959 105.708 244.959C106.39 244.959 106.926 244.749 107.318 244.329C107.71 243.909 107.906 243.298 107.906 242.495V238.281H109.18ZM122.064 241.823C122.064 242.066 122.05 242.323 122.022 242.593H115.89C115.937 243.349 116.193 243.942 116.66 244.371C117.136 244.791 117.71 245.001 118.382 245.001C118.933 245.001 119.39 244.875 119.754 244.623C120.127 244.362 120.389 244.017 120.538 243.587H121.91C121.705 244.325 121.294 244.927 120.678 245.393C120.062 245.851 119.297 246.079 118.382 246.079C117.654 246.079 117.001 245.916 116.422 245.589C115.853 245.263 115.405 244.801 115.078 244.203C114.751 243.597 114.588 242.897 114.588 242.103C114.588 241.31 114.747 240.615 115.064 240.017C115.381 239.42 115.825 238.963 116.394 238.645C116.973 238.319 117.635 238.155 118.382 238.155C119.11 238.155 119.754 238.314 120.314 238.631C120.874 238.949 121.303 239.387 121.602 239.947C121.91 240.498 122.064 241.123 122.064 241.823ZM120.748 241.557C120.748 241.072 120.641 240.657 120.426 240.311C120.211 239.957 119.917 239.691 119.544 239.513C119.18 239.327 118.774 239.233 118.326 239.233C117.682 239.233 117.131 239.439 116.674 239.849C116.226 240.26 115.969 240.829 115.904 241.557H120.748ZM132.971 238.141C133.569 238.141 134.101 238.267 134.567 238.519C135.034 238.762 135.403 239.131 135.673 239.625C135.944 240.12 136.079 240.722 136.079 241.431V245.953H134.819V241.613C134.819 240.848 134.628 240.265 134.245 239.863C133.872 239.453 133.363 239.247 132.719 239.247C132.057 239.247 131.529 239.462 131.137 239.891C130.745 240.311 130.549 240.923 130.549 241.725V245.953H129.289V241.613C129.289 240.848 129.098 240.265 128.715 239.863C128.342 239.453 127.833 239.247 127.189 239.247C126.527 239.247 125.999 239.462 125.607 239.891C125.215 240.311 125.019 240.923 125.019 241.725V245.953H123.745V238.281H125.019V239.387C125.271 238.986 125.607 238.678 126.027 238.463C126.457 238.249 126.928 238.141 127.441 238.141C128.085 238.141 128.655 238.286 129.149 238.575C129.644 238.865 130.013 239.289 130.255 239.849C130.47 239.308 130.825 238.888 131.319 238.589C131.814 238.291 132.365 238.141 132.971 238.141ZM137.693 242.089C137.693 241.305 137.852 240.619 138.169 240.031C138.487 239.434 138.921 238.972 139.471 238.645C140.031 238.319 140.652 238.155 141.333 238.155C142.005 238.155 142.589 238.3 143.083 238.589C143.578 238.879 143.947 239.243 144.189 239.681V238.281H145.477V245.953H144.189V244.525C143.937 244.973 143.559 245.347 143.055 245.645C142.561 245.935 141.982 246.079 141.319 246.079C140.638 246.079 140.022 245.911 139.471 245.575C138.921 245.239 138.487 244.768 138.169 244.161C137.852 243.555 137.693 242.864 137.693 242.089ZM144.189 242.103C144.189 241.525 144.073 241.021 143.839 240.591C143.606 240.162 143.289 239.835 142.887 239.611C142.495 239.378 142.061 239.261 141.585 239.261C141.109 239.261 140.675 239.373 140.283 239.597C139.891 239.821 139.579 240.148 139.345 240.577C139.112 241.007 138.995 241.511 138.995 242.089C138.995 242.677 139.112 243.191 139.345 243.629C139.579 244.059 139.891 244.39 140.283 244.623C140.675 244.847 141.109 244.959 141.585 244.959C142.061 244.959 142.495 244.847 142.887 244.623C143.289 244.39 143.606 244.059 143.839 243.629C144.073 243.191 144.189 242.682 144.189 242.103ZM148.288 237.035C148.046 237.035 147.84 236.951 147.672 236.783C147.504 236.615 147.42 236.41 147.42 236.167C147.42 235.925 147.504 235.719 147.672 235.551C147.84 235.383 148.046 235.299 148.288 235.299C148.522 235.299 148.718 235.383 148.876 235.551C149.044 235.719 149.128 235.925 149.128 236.167C149.128 236.41 149.044 236.615 148.876 236.783C148.718 236.951 148.522 237.035 148.288 237.035ZM148.904 238.281V245.953H147.63V238.281H148.904ZM152.35 235.593V245.953H151.076V235.593H152.35Z" fill="#D4D4D8"/>
<rect x="34.0854" y="222.453" width="290" height="40" rx="3.5" stroke="#D4D4D8"/>
<path d="M41.9209 193.807C41.7049 193.391 41.4049 193.079 41.0209 192.871C40.6369 192.655 40.1929 192.547 39.6889 192.547C39.1369 192.547 38.6449 192.671 38.2129 192.919C37.7809 193.167 37.4409 193.519 37.1929 193.975C36.9529 194.431 36.8329 194.959 36.8329 195.559C36.8329 196.159 36.9529 196.691 37.1929 197.155C37.4409 197.611 37.7809 197.963 38.2129 198.211C38.6449 198.459 39.1369 198.583 39.6889 198.583C40.4329 198.583 41.0369 198.375 41.5009 197.959C41.9649 197.543 42.2489 196.979 42.3529 196.267H39.2209V195.175H43.8169V196.243C43.7289 196.891 43.4969 197.487 43.1209 198.031C42.7529 198.575 42.2689 199.011 41.6689 199.339C41.0769 199.659 40.4169 199.819 39.6889 199.819C38.9049 199.819 38.1889 199.639 37.5409 199.279C36.8929 198.911 36.3769 198.403 35.9929 197.755C35.6169 197.107 35.4289 196.375 35.4289 195.559C35.4289 194.743 35.6169 194.011 35.9929 193.363C36.3769 192.715 36.8929 192.211 37.5409 191.851C38.1969 191.483 38.9129 191.299 39.6889 191.299C40.5769 191.299 41.3649 191.519 42.0529 191.959C42.7489 192.391 43.2529 193.007 43.5649 193.807H41.9209ZM51.2261 196.279C51.2261 196.527 51.2101 196.751 51.1781 196.951H46.1261C46.1661 197.479 46.3621 197.903 46.7141 198.223C47.0661 198.543 47.4981 198.703 48.0101 198.703C48.7461 198.703 49.2661 198.395 49.5701 197.779H51.0461C50.8461 198.387 50.4821 198.887 49.9541 199.279C49.4341 199.663 48.7861 199.855 48.0101 199.855C47.3781 199.855 46.8101 199.715 46.3061 199.435C45.8101 199.147 45.4181 198.747 45.1301 198.235C44.8501 197.715 44.7101 197.115 44.7101 196.435C44.7101 195.755 44.8461 195.159 45.1181 194.647C45.3981 194.127 45.7861 193.727 46.2821 193.447C46.7861 193.167 47.3621 193.027 48.0101 193.027C48.6341 193.027 49.1901 193.163 49.6781 193.435C50.1661 193.707 50.5461 194.091 50.8181 194.587C51.0901 195.075 51.2261 195.639 51.2261 196.279ZM49.7981 195.847C49.7901 195.343 49.6101 194.939 49.2581 194.635C48.9061 194.331 48.4701 194.179 47.9501 194.179C47.4781 194.179 47.0741 194.331 46.7381 194.635C46.4021 194.931 46.2021 195.335 46.1381 195.847H49.7981ZM54.1684 194.251V197.911C54.1684 198.159 54.2244 198.339 54.3364 198.451C54.4564 198.555 54.6564 198.607 54.9364 198.607H55.7764V199.747H54.6964C54.0804 199.747 53.6084 199.603 53.2804 199.315C52.9524 199.027 52.7884 198.559 52.7884 197.911V194.251H52.0084V193.135H52.7884V191.491H54.1684V193.135H55.7764V194.251H54.1684ZM59.6984 196.411C59.6984 195.747 59.8344 195.159 60.1064 194.647C60.3864 194.135 60.7624 193.739 61.2344 193.459C61.7144 193.171 62.2424 193.027 62.8184 193.027C63.3384 193.027 63.7904 193.131 64.1744 193.339C64.5664 193.539 64.8784 193.791 65.1104 194.095V193.135H66.4904V199.747H65.1104V198.763C64.8784 199.075 64.5624 199.335 64.1624 199.543C63.7624 199.751 63.3064 199.855 62.7944 199.855C62.2264 199.855 61.7064 199.711 61.2344 199.423C60.7624 199.127 60.3864 198.719 60.1064 198.199C59.8344 197.671 59.6984 197.075 59.6984 196.411ZM65.1104 196.435C65.1104 195.979 65.0144 195.583 64.8224 195.247C64.6384 194.911 64.3944 194.655 64.0904 194.479C63.7864 194.303 63.4584 194.215 63.1064 194.215C62.7544 194.215 62.4264 194.303 62.1224 194.479C61.8184 194.647 61.5704 194.899 61.3784 195.235C61.1944 195.563 61.1024 195.955 61.1024 196.411C61.1024 196.867 61.1944 197.267 61.3784 197.611C61.5704 197.955 61.8184 198.219 62.1224 198.403C62.4344 198.579 62.7624 198.667 63.1064 198.667C63.4584 198.667 63.7864 198.579 64.0904 198.403C64.3944 198.227 64.6384 197.971 64.8224 197.635C65.0144 197.291 65.1104 196.891 65.1104 196.435ZM70.9484 196.411C70.9484 195.747 71.0844 195.159 71.3564 194.647C71.6364 194.135 72.0124 193.739 72.4844 193.459C72.9644 193.171 73.4964 193.027 74.0804 193.027C74.5124 193.027 74.9364 193.123 75.3524 193.315C75.7764 193.499 76.1124 193.747 76.3604 194.059V190.867H77.7404V199.747H76.3604V198.751C76.1364 199.071 75.8244 199.335 75.4244 199.543C75.0324 199.751 74.5804 199.855 74.0684 199.855C73.4924 199.855 72.9644 199.711 72.4844 199.423C72.0124 199.127 71.6364 198.719 71.3564 198.199C71.0844 197.671 70.9484 197.075 70.9484 196.411ZM76.3604 196.435C76.3604 195.979 76.2644 195.583 76.0724 195.247C75.8884 194.911 75.6444 194.655 75.3404 194.479C75.0364 194.303 74.7084 194.215 74.3564 194.215C74.0044 194.215 73.6764 194.303 73.3724 194.479C73.0684 194.647 72.8204 194.899 72.6284 195.235C72.4444 195.563 72.3524 195.955 72.3524 196.411C72.3524 196.867 72.4444 197.267 72.6284 197.611C72.8204 197.955 73.0684 198.219 73.3724 198.403C73.6844 198.579 74.0124 198.667 74.3564 198.667C74.7084 198.667 75.0364 198.579 75.3404 198.403C75.6444 198.227 75.8884 197.971 76.0724 197.635C76.2644 197.291 76.3604 196.891 76.3604 196.435ZM79.0812 196.411C79.0812 195.747 79.2172 195.159 79.4892 194.647C79.7692 194.135 80.1452 193.739 80.6172 193.459C81.0972 193.171 81.6252 193.027 82.2012 193.027C82.7212 193.027 83.1732 193.131 83.5572 193.339C83.9492 193.539 84.2612 193.791 84.4932 194.095V193.135H85.8732V199.747H84.4932V198.763C84.2612 199.075 83.9452 199.335 83.5452 199.543C83.1452 199.751 82.6892 199.855 82.1772 199.855C81.6092 199.855 81.0892 199.711 80.6172 199.423C80.1452 199.127 79.7692 198.719 79.4892 198.199C79.2172 197.671 79.0812 197.075 79.0812 196.411ZM84.4932 196.435C84.4932 195.979 84.3972 195.583 84.2052 195.247C84.0212 194.911 83.7772 194.655 83.4732 194.479C83.1692 194.303 82.8412 194.215 82.4892 194.215C82.1372 194.215 81.8092 194.303 81.5052 194.479C81.2012 194.647 80.9532 194.899 80.7612 195.235C80.5772 195.563 80.4852 195.955 80.4852 196.411C80.4852 196.867 80.5772 197.267 80.7612 197.611C80.9532 197.955 81.2012 198.219 81.5052 198.403C81.8172 198.579 82.1452 198.667 82.4892 198.667C82.8412 198.667 83.1692 198.579 83.4732 198.403C83.7772 198.227 84.0212 197.971 84.2052 197.635C84.3972 197.291 84.4932 196.891 84.4932 196.435ZM88.366 192.259C88.118 192.259 87.91 192.175 87.742 192.007C87.574 191.839 87.49 191.631 87.49 191.383C87.49 191.135 87.574 190.927 87.742 190.759C87.91 190.591 88.118 190.507 88.366 190.507C88.606 190.507 88.81 190.591 88.978 190.759C89.146 190.927 89.23 191.135 89.23 191.383C89.23 191.631 89.146 191.839 88.978 192.007C88.81 192.175 88.606 192.259 88.366 192.259ZM89.038 193.135V199.747H87.67V193.135H89.038ZM92.2021 190.867V199.747H90.8341V190.867H92.2021ZM99.9501 193.135L95.8941 202.855H94.4781L95.8221 199.639L93.2181 193.135H94.7421L96.6021 198.175L98.5341 193.135H99.9501ZM110.16 196.279C110.16 196.527 110.144 196.751 110.112 196.951H105.06C105.1 197.479 105.296 197.903 105.648 198.223C106 198.543 106.432 198.703 106.944 198.703C107.68 198.703 108.2 198.395 108.504 197.779H109.98C109.78 198.387 109.416 198.887 108.888 199.279C108.368 199.663 107.72 199.855 106.944 199.855C106.312 199.855 105.744 199.715 105.24 199.435C104.744 199.147 104.352 198.747 104.064 198.235C103.784 197.715 103.644 197.115 103.644 196.435C103.644 195.755 103.78 195.159 104.052 194.647C104.332 194.127 104.72 193.727 105.216 193.447C105.72 193.167 106.296 193.027 106.944 193.027C107.568 193.027 108.124 193.163 108.612 193.435C109.1 193.707 109.48 194.091 109.752 194.587C110.024 195.075 110.16 195.639 110.16 196.279ZM108.732 195.847C108.724 195.343 108.544 194.939 108.192 194.635C107.84 194.331 107.404 194.179 106.884 194.179C106.412 194.179 106.008 194.331 105.672 194.635C105.336 194.931 105.136 195.335 105.072 195.847H108.732ZM119.51 193.027C120.03 193.027 120.494 193.135 120.902 193.351C121.318 193.567 121.642 193.887 121.874 194.311C122.114 194.735 122.234 195.247 122.234 195.847V199.747H120.878V196.051C120.878 195.459 120.73 195.007 120.434 194.695C120.138 194.375 119.734 194.215 119.222 194.215C118.71 194.215 118.302 194.375 117.998 194.695C117.702 195.007 117.554 195.459 117.554 196.051V199.747H116.198V196.051C116.198 195.459 116.05 195.007 115.754 194.695C115.458 194.375 115.054 194.215 114.542 194.215C114.03 194.215 113.622 194.375 113.318 194.695C113.022 195.007 112.874 195.459 112.874 196.051V199.747H111.506V193.135H112.874V193.891C113.098 193.619 113.382 193.407 113.726 193.255C114.07 193.103 114.438 193.027 114.83 193.027C115.358 193.027 115.83 193.139 116.246 193.363C116.662 193.587 116.982 193.911 117.206 194.335C117.406 193.935 117.718 193.619 118.142 193.387C118.566 193.147 119.022 193.027 119.51 193.027ZM123.519 196.411C123.519 195.747 123.655 195.159 123.927 194.647C124.207 194.135 124.583 193.739 125.055 193.459C125.535 193.171 126.063 193.027 126.639 193.027C127.159 193.027 127.611 193.131 127.995 193.339C128.387 193.539 128.699 193.791 128.931 194.095V193.135H130.311V199.747H128.931V198.763C128.699 199.075 128.383 199.335 127.983 199.543C127.583 199.751 127.127 199.855 126.615 199.855C126.047 199.855 125.527 199.711 125.055 199.423C124.583 199.127 124.207 198.719 123.927 198.199C123.655 197.671 123.519 197.075 123.519 196.411ZM128.931 196.435C128.931 195.979 128.835 195.583 128.643 195.247C128.459 194.911 128.215 194.655 127.911 194.479C127.607 194.303 127.279 194.215 126.927 194.215C126.575 194.215 126.247 194.303 125.943 194.479C125.639 194.647 125.391 194.899 125.199 195.235C125.015 195.563 124.923 195.955 124.923 196.411C124.923 196.867 125.015 197.267 125.199 197.611C125.391 197.955 125.639 198.219 125.943 198.403C126.255 198.579 126.583 198.667 126.927 198.667C127.279 198.667 127.607 198.579 127.911 198.403C128.215 198.227 128.459 197.971 128.643 197.635C128.835 197.291 128.931 196.891 128.931 196.435ZM132.804 192.259C132.556 192.259 132.348 192.175 132.18 192.007C132.012 191.839 131.928 191.631 131.928 191.383C131.928 191.135 132.012 190.927 132.18 190.759C132.348 190.591 132.556 190.507 132.804 190.507C133.044 190.507 133.248 190.591 133.416 190.759C133.584 190.927 133.668 191.135 133.668 191.383C133.668 191.631 133.584 191.839 133.416 192.007C133.248 192.175 133.044 192.259 132.804 192.259ZM133.476 193.135V199.747H132.108V193.135H133.476ZM136.64 190.867V199.747H135.272V190.867H136.64ZM144.421 199.855C143.797 199.855 143.233 199.715 142.729 199.435C142.225 199.147 141.829 198.747 141.541 198.235C141.253 197.715 141.109 197.115 141.109 196.435C141.109 195.763 141.257 195.167 141.553 194.647C141.849 194.127 142.253 193.727 142.765 193.447C143.277 193.167 143.849 193.027 144.481 193.027C145.113 193.027 145.685 193.167 146.197 193.447C146.709 193.727 147.113 194.127 147.409 194.647C147.705 195.167 147.853 195.763 147.853 196.435C147.853 197.107 147.701 197.703 147.397 198.223C147.093 198.743 146.677 199.147 146.149 199.435C145.629 199.715 145.053 199.855 144.421 199.855ZM144.421 198.667C144.773 198.667 145.101 198.583 145.405 198.415C145.717 198.247 145.969 197.995 146.161 197.659C146.353 197.323 146.449 196.915 146.449 196.435C146.449 195.955 146.357 195.551 146.173 195.223C145.989 194.887 145.745 194.635 145.441 194.467C145.137 194.299 144.809 194.215 144.457 194.215C144.105 194.215 143.777 194.299 143.473 194.467C143.177 194.635 142.941 194.887 142.765 195.223C142.589 195.551 142.501 195.955 142.501 196.435C142.501 197.147 142.681 197.699 143.041 198.091C143.409 198.475 143.869 198.667 144.421 198.667ZM151.977 194.251H150.753V199.747H149.373V194.251H148.593V193.135H149.373V192.667C149.373 191.907 149.573 191.355 149.973 191.011C150.381 190.659 151.017 190.483 151.881 190.483V191.623C151.465 191.623 151.173 191.703 151.005 191.863C150.837 192.015 150.753 192.283 150.753 192.667V193.135H151.977V194.251ZM155.851 196.411C155.851 195.747 155.987 195.159 156.259 194.647C156.539 194.135 156.915 193.739 157.387 193.459C157.867 193.171 158.395 193.027 158.971 193.027C159.491 193.027 159.943 193.131 160.327 193.339C160.719 193.539 161.031 193.791 161.263 194.095V193.135H162.643V199.747H161.263V198.763C161.031 199.075 160.715 199.335 160.315 199.543C159.915 199.751 159.459 199.855 158.947 199.855C158.379 199.855 157.859 199.711 157.387 199.423C156.915 199.127 156.539 198.719 156.259 198.199C155.987 197.671 155.851 197.075 155.851 196.411ZM161.263 196.435C161.263 195.979 161.167 195.583 160.975 195.247C160.791 194.911 160.547 194.655 160.243 194.479C159.939 194.303 159.611 194.215 159.259 194.215C158.907 194.215 158.579 194.303 158.275 194.479C157.971 194.647 157.723 194.899 157.531 195.235C157.347 195.563 157.255 195.955 157.255 196.411C157.255 196.867 157.347 197.267 157.531 197.611C157.723 197.955 157.971 198.219 158.275 198.403C158.587 198.579 158.915 198.667 159.259 198.667C159.611 198.667 159.939 198.579 160.243 198.403C160.547 198.227 160.791 197.971 160.975 197.635C161.167 197.291 161.263 196.891 161.263 196.435ZM165.808 190.867V199.747H164.44V190.867H165.808ZM168.972 190.867V199.747H167.604V190.867H168.972ZM177.221 193.027C177.741 193.027 178.205 193.135 178.613 193.351C179.029 193.567 179.353 193.887 179.585 194.311C179.817 194.735 179.933 195.247 179.933 195.847V199.747H178.577V196.051C178.577 195.459 178.429 195.007 178.133 194.695C177.837 194.375 177.433 194.215 176.921 194.215C176.409 194.215 176.001 194.375 175.697 194.695C175.401 195.007 175.253 195.459 175.253 196.051V199.747H173.885V193.135H175.253V193.891C175.477 193.619 175.761 193.407 176.105 193.255C176.457 193.103 176.829 193.027 177.221 193.027ZM187.738 196.279C187.738 196.527 187.722 196.751 187.69 196.951H182.638C182.678 197.479 182.874 197.903 183.226 198.223C183.578 198.543 184.01 198.703 184.522 198.703C185.258 198.703 185.778 198.395 186.082 197.779H187.558C187.358 198.387 186.994 198.887 186.466 199.279C185.946 199.663 185.298 199.855 184.522 199.855C183.89 199.855 183.322 199.715 182.818 199.435C182.322 199.147 181.93 198.747 181.642 198.235C181.362 197.715 181.222 197.115 181.222 196.435C181.222 195.755 181.358 195.159 181.63 194.647C181.91 194.127 182.298 193.727 182.794 193.447C183.298 193.167 183.874 193.027 184.522 193.027C185.146 193.027 185.702 193.163 186.19 193.435C186.678 193.707 187.058 194.091 187.33 194.587C187.602 195.075 187.738 195.639 187.738 196.279ZM186.31 195.847C186.302 195.343 186.122 194.939 185.77 194.635C185.418 194.331 184.982 194.179 184.462 194.179C183.99 194.179 183.586 194.331 183.25 194.635C182.914 194.931 182.714 195.335 182.65 195.847H186.31ZM197.964 193.135L195.912 199.747H194.472L193.14 194.863L191.808 199.747H190.368L188.304 193.135H189.696L191.076 198.451L192.48 193.135H193.908L195.252 198.427L196.62 193.135H197.964ZM202.8 192.259C202.552 192.259 202.344 192.175 202.176 192.007C202.008 191.839 201.924 191.631 201.924 191.383C201.924 191.135 202.008 190.927 202.176 190.759C202.344 190.591 202.552 190.507 202.8 190.507C203.04 190.507 203.244 190.591 203.412 190.759C203.58 190.927 203.664 191.135 203.664 191.383C203.664 191.631 203.58 191.839 203.412 192.007C203.244 192.175 203.04 192.259 202.8 192.259ZM203.472 201.043C203.472 201.691 203.308 202.159 202.98 202.447C202.66 202.743 202.192 202.891 201.576 202.891H200.868V201.739H201.336C201.616 201.739 201.812 201.683 201.924 201.571C202.044 201.467 202.104 201.291 202.104 201.043V193.135H203.472V201.043ZM208.136 199.855C207.512 199.855 206.948 199.715 206.444 199.435C205.94 199.147 205.544 198.747 205.256 198.235C204.968 197.715 204.824 197.115 204.824 196.435C204.824 195.763 204.972 195.167 205.268 194.647C205.564 194.127 205.968 193.727 206.48 193.447C206.992 193.167 207.564 193.027 208.196 193.027C208.828 193.027 209.4 193.167 209.912 193.447C210.424 193.727 210.828 194.127 211.124 194.647C211.42 195.167 211.568 195.763 211.568 196.435C211.568 197.107 211.416 197.703 211.112 198.223C210.808 198.743 210.392 199.147 209.864 199.435C209.344 199.715 208.768 199.855 208.136 199.855ZM208.136 198.667C208.488 198.667 208.816 198.583 209.12 198.415C209.432 198.247 209.684 197.995 209.876 197.659C210.068 197.323 210.164 196.915 210.164 196.435C210.164 195.955 210.072 195.551 209.888 195.223C209.704 194.887 209.46 194.635 209.156 194.467C208.852 194.299 208.524 194.215 208.172 194.215C207.82 194.215 207.492 194.299 207.188 194.467C206.892 194.635 206.656 194.887 206.48 195.223C206.304 195.551 206.216 195.955 206.216 196.435C206.216 197.147 206.396 197.699 206.756 198.091C207.124 198.475 207.584 198.667 208.136 198.667ZM214.288 194.119C214.52 193.799 214.836 193.539 215.236 193.339C215.644 193.131 216.096 193.027 216.592 193.027C217.176 193.027 217.704 193.167 218.176 193.447C218.648 193.727 219.02 194.127 219.292 194.647C219.564 195.159 219.7 195.747 219.7 196.411C219.7 197.075 219.564 197.671 219.292 198.199C219.02 198.719 218.644 199.127 218.164 199.423C217.692 199.711 217.168 199.855 216.592 199.855C216.08 199.855 215.624 199.755 215.224 199.555C214.832 199.355 214.52 199.099 214.288 198.787V199.747H212.92V190.867H214.288V194.119ZM218.308 196.411C218.308 195.955 218.212 195.563 218.02 195.235C217.836 194.899 217.588 194.647 217.276 194.479C216.972 194.303 216.644 194.215 216.292 194.215C215.948 194.215 215.62 194.303 215.308 194.479C215.004 194.655 214.756 194.911 214.564 195.247C214.38 195.583 214.288 195.979 214.288 196.435C214.288 196.891 214.38 197.291 214.564 197.635C214.756 197.971 215.004 198.227 215.308 198.403C215.62 198.579 215.948 198.667 216.292 198.667C216.644 198.667 216.972 198.579 217.276 198.403C217.588 198.219 217.836 197.955 218.02 197.611C218.212 197.267 218.308 196.867 218.308 196.411ZM223.453 199.855C222.933 199.855 222.465 199.763 222.049 199.579C221.641 199.387 221.317 199.131 221.077 198.811C220.837 198.483 220.709 198.119 220.693 197.719H222.109C222.133 197.999 222.265 198.235 222.505 198.427C222.753 198.611 223.061 198.703 223.429 198.703C223.813 198.703 224.109 198.631 224.317 198.487C224.533 198.335 224.641 198.143 224.641 197.911C224.641 197.663 224.521 197.479 224.281 197.359C224.049 197.239 223.677 197.107 223.165 196.963C222.669 196.827 222.265 196.695 221.953 196.567C221.641 196.439 221.369 196.243 221.137 195.979C220.913 195.715 220.801 195.367 220.801 194.935C220.801 194.583 220.905 194.263 221.113 193.975C221.321 193.679 221.617 193.447 222.001 193.279C222.393 193.111 222.841 193.027 223.345 193.027C224.097 193.027 224.701 193.219 225.157 193.603C225.621 193.979 225.869 194.495 225.901 195.151H224.533C224.509 194.855 224.389 194.619 224.173 194.443C223.957 194.267 223.665 194.179 223.297 194.179C222.937 194.179 222.661 194.247 222.469 194.383C222.277 194.519 222.181 194.699 222.181 194.923C222.181 195.099 222.245 195.247 222.373 195.367C222.501 195.487 222.657 195.583 222.841 195.655C223.025 195.719 223.297 195.803 223.657 195.907C224.137 196.035 224.529 196.167 224.833 196.303C225.145 196.431 225.413 196.623 225.637 196.879C225.861 197.135 225.977 197.475 225.985 197.899C225.985 198.275 225.881 198.611 225.673 198.907C225.465 199.203 225.169 199.435 224.785 199.603C224.409 199.771 223.965 199.855 223.453 199.855Z" fill="white"/>
<path d="M42.5689 141.572C41.3369 141.572 40.2329 141.372 39.2569 140.972C38.2809 140.572 37.4969 139.98 36.9049 139.196C36.3289 138.412 36.0249 137.468 35.9929 136.364H40.3609C40.4249 136.988 40.6409 137.468 41.0089 137.804C41.3769 138.124 41.8569 138.284 42.4489 138.284C43.0569 138.284 43.5369 138.148 43.8889 137.876C44.2409 137.588 44.4169 137.196 44.4169 136.7C44.4169 136.284 44.2729 135.94 43.9849 135.668C43.7129 135.396 43.3689 135.172 42.9529 134.996C42.5529 134.82 41.9769 134.62 41.2249 134.396C40.1369 134.06 39.2489 133.724 38.5609 133.388C37.8729 133.052 37.2809 132.556 36.7849 131.9C36.2889 131.244 36.0409 130.388 36.0409 129.332C36.0409 127.764 36.6089 126.54 37.7449 125.66C38.8809 124.764 40.3609 124.316 42.1849 124.316C44.0409 124.316 45.5369 124.764 46.6729 125.66C47.8089 126.54 48.4169 127.772 48.4969 129.356H44.0569C44.0249 128.812 43.8249 128.388 43.4569 128.084C43.0889 127.764 42.6169 127.604 42.0409 127.604C41.5449 127.604 41.1449 127.74 40.8409 128.012C40.5369 128.268 40.3849 128.644 40.3849 129.14C40.3849 129.684 40.6409 130.108 41.1529 130.412C41.6649 130.716 42.4649 131.044 43.5529 131.396C44.6409 131.764 45.5209 132.116 46.1929 132.452C46.8809 132.788 47.4729 133.276 47.9689 133.916C48.4649 134.556 48.7129 135.38 48.7129 136.388C48.7129 137.348 48.4649 138.22 47.9689 139.004C47.4889 139.788 46.7849 140.412 45.8569 140.876C44.9289 141.34 43.8329 141.572 42.5689 141.572ZM58.7025 137.924V141.404H56.6145C55.1265 141.404 53.9665 141.044 53.1345 140.324C52.3025 139.588 51.8865 138.396 51.8865 136.748V131.42H50.2545V128.012H51.8865V124.748H55.9905V128.012H58.6785V131.42H55.9905V136.796C55.9905 137.196 56.0865 137.484 56.2785 137.66C56.4705 137.836 56.7905 137.924 57.2385 137.924H58.7025ZM60.1725 134.684C60.1725 133.308 60.4285 132.1 60.9405 131.06C61.4685 130.02 62.1805 129.22 63.0765 128.66C63.9725 128.1 64.9725 127.82 66.0765 127.82C67.0205 127.82 67.8445 128.012 68.5485 128.396C69.2685 128.78 69.8205 129.284 70.2045 129.908V128.012H74.3085V141.404H70.2045V139.508C69.8045 140.132 69.2445 140.636 68.5245 141.02C67.8205 141.404 66.9965 141.596 66.0525 141.596C64.9645 141.596 63.9725 141.316 63.0765 140.756C62.1805 140.18 61.4685 139.372 60.9405 138.332C60.4285 137.276 60.1725 136.06 60.1725 134.684ZM70.2045 134.708C70.2045 133.684 69.9165 132.876 69.3405 132.284C68.7805 131.692 68.0925 131.396 67.2765 131.396C66.4605 131.396 65.7645 131.692 65.1885 132.284C64.6285 132.86 64.3485 133.66 64.3485 134.684C64.3485 135.708 64.6285 136.524 65.1885 137.132C65.7645 137.724 66.4605 138.02 67.2765 138.02C68.0925 138.02 68.7805 137.724 69.3405 137.132C69.9165 136.54 70.2045 135.732 70.2045 134.708ZM90.9576 128.012L82.5576 147.764H78.1416L81.2136 140.948L75.7656 128.012H80.3496L83.4456 136.388L86.5176 128.012H90.9576ZM101.56 124.556V134.636C101.56 135.644 101.808 136.42 102.304 136.964C102.8 137.508 103.528 137.78 104.488 137.78C105.448 137.78 106.184 137.508 106.696 136.964C107.208 136.42 107.464 135.644 107.464 134.636V124.556H111.568V134.612C111.568 136.116 111.248 137.388 110.608 138.428C109.968 139.468 109.104 140.252 108.016 140.78C106.944 141.308 105.744 141.572 104.416 141.572C103.088 141.572 101.896 141.316 100.84 140.804C99.7996 140.276 98.9756 139.492 98.3676 138.452C97.7596 137.396 97.4556 136.116 97.4556 134.612V124.556H101.56ZM118.553 129.908C118.953 129.284 119.505 128.78 120.209 128.396C120.913 128.012 121.737 127.82 122.681 127.82C123.785 127.82 124.785 128.1 125.681 128.66C126.577 129.22 127.281 130.02 127.793 131.06C128.321 132.1 128.585 133.308 128.585 134.684C128.585 136.06 128.321 137.276 127.793 138.332C127.281 139.372 126.577 140.18 125.681 140.756C124.785 141.316 123.785 141.596 122.681 141.596C121.753 141.596 120.929 141.404 120.209 141.02C119.505 140.636 118.953 140.14 118.553 139.532V147.788H114.449V128.012H118.553V129.908ZM124.409 134.684C124.409 133.66 124.121 132.86 123.545 132.284C122.985 131.692 122.289 131.396 121.457 131.396C120.641 131.396 119.945 131.692 119.369 132.284C118.809 132.876 118.529 133.684 118.529 134.708C118.529 135.732 118.809 136.54 119.369 137.132C119.945 137.724 120.641 138.02 121.457 138.02C122.273 138.02 122.969 137.724 123.545 137.132C124.121 136.524 124.409 135.708 124.409 134.684ZM141.058 131.276V134.684H130.498V131.276H141.058ZM152.124 137.924V141.404H150.036C148.548 141.404 147.388 141.044 146.556 140.324C145.724 139.588 145.308 138.396 145.308 136.748V131.42H143.676V128.012H145.308V124.748H149.412V128.012H152.1V131.42H149.412V136.796C149.412 137.196 149.508 137.484 149.7 137.66C149.892 137.836 150.212 137.924 150.66 137.924H152.124ZM160.506 141.596C159.194 141.596 158.01 141.316 156.954 140.756C155.914 140.196 155.09 139.396 154.482 138.356C153.89 137.316 153.594 136.1 153.594 134.708C153.594 133.332 153.898 132.124 154.506 131.084C155.114 130.028 155.946 129.22 157.002 128.66C158.058 128.1 159.242 127.82 160.554 127.82C161.866 127.82 163.05 128.1 164.106 128.66C165.162 129.22 165.994 130.028 166.602 131.084C167.21 132.124 167.514 133.332 167.514 134.708C167.514 136.084 167.202 137.3 166.578 138.356C165.97 139.396 165.13 140.196 164.058 140.756C163.002 141.316 161.818 141.596 160.506 141.596ZM160.506 138.044C161.29 138.044 161.954 137.756 162.498 137.18C163.058 136.604 163.338 135.78 163.338 134.708C163.338 133.636 163.066 132.812 162.522 132.236C161.994 131.66 161.338 131.372 160.554 131.372C159.754 131.372 159.09 131.66 158.562 132.236C158.034 132.796 157.77 133.62 157.77 134.708C157.77 135.78 158.026 136.604 158.538 137.18C159.066 137.756 159.722 138.044 160.506 138.044ZM180.012 131.276V134.684H169.452V131.276H180.012ZM182.797 134.684C182.797 133.308 183.053 132.1 183.565 131.06C184.093 130.02 184.805 129.22 185.701 128.66C186.597 128.1 187.597 127.82 188.701 127.82C189.581 127.82 190.381 128.004 191.101 128.372C191.837 128.74 192.413 129.236 192.829 129.86V123.644H196.933V141.404H192.829V139.484C192.445 140.124 191.893 140.636 191.173 141.02C190.469 141.404 189.645 141.596 188.701 141.596C187.597 141.596 186.597 141.316 185.701 140.756C184.805 140.18 184.093 139.372 183.565 138.332C183.053 137.276 182.797 136.06 182.797 134.684ZM192.829 134.708C192.829 133.684 192.541 132.876 191.965 132.284C191.405 131.692 190.717 131.396 189.901 131.396C189.085 131.396 188.389 131.692 187.813 132.284C187.253 132.86 186.973 133.66 186.973 134.684C186.973 135.708 187.253 136.524 187.813 137.132C188.389 137.724 189.085 138.02 189.901 138.02C190.717 138.02 191.405 137.724 191.965 137.132C192.541 136.54 192.829 135.732 192.829 134.708ZM199.087 134.684C199.087 133.308 199.343 132.1 199.855 131.06C200.383 130.02 201.095 129.22 201.991 128.66C202.887 128.1 203.887 127.82 204.991 127.82C205.935 127.82 206.759 128.012 207.463 128.396C208.183 128.78 208.735 129.284 209.119 129.908V128.012H213.223V141.404H209.119V139.508C208.719 140.132 208.159 140.636 207.439 141.02C206.735 141.404 205.911 141.596 204.967 141.596C203.879 141.596 202.887 141.316 201.991 140.756C201.095 140.18 200.383 139.372 199.855 138.332C199.343 137.276 199.087 136.06 199.087 134.684ZM209.119 134.708C209.119 133.684 208.831 132.876 208.255 132.284C207.695 131.692 207.007 131.396 206.191 131.396C205.375 131.396 204.679 131.692 204.103 132.284C203.543 132.86 203.263 133.66 203.263 134.684C203.263 135.708 203.543 136.524 204.103 137.132C204.679 137.724 205.375 138.02 206.191 138.02C207.007 138.02 207.695 137.724 208.255 137.132C208.831 136.54 209.119 135.732 209.119 134.708ZM223.656 137.924V141.404H221.568C220.08 141.404 218.92 141.044 218.088 140.324C217.256 139.588 216.84 138.396 216.84 136.748V131.42H215.208V128.012H216.84V124.748H220.944V128.012H223.632V131.42H220.944V136.796C220.944 137.196 221.04 137.484 221.232 137.66C221.424 137.836 221.744 137.924 222.192 137.924H223.656ZM238.566 134.492C238.566 134.876 238.542 135.276 238.494 135.692H229.206C229.27 136.524 229.534 137.164 229.998 137.612C230.478 138.044 231.062 138.26 231.75 138.26C232.774 138.26 233.486 137.828 233.886 136.964H238.254C238.03 137.844 237.622 138.636 237.03 139.34C236.454 140.044 235.726 140.596 234.846 140.996C233.966 141.396 232.982 141.596 231.894 141.596C230.582 141.596 229.414 141.316 228.39 140.756C227.366 140.196 226.566 139.396 225.99 138.356C225.414 137.316 225.126 136.1 225.126 134.708C225.126 133.316 225.406 132.1 225.966 131.06C226.542 130.02 227.342 129.22 228.366 128.66C229.39 128.1 230.566 127.82 231.894 127.82C233.19 127.82 234.342 128.092 235.35 128.636C236.358 129.18 237.142 129.956 237.702 130.964C238.278 131.972 238.566 133.148 238.566 134.492ZM234.366 133.412C234.366 132.708 234.126 132.148 233.646 131.732C233.166 131.316 232.566 131.108 231.846 131.108C231.158 131.108 230.574 131.308 230.094 131.708C229.63 132.108 229.342 132.676 229.23 133.412H234.366ZM55.6969 157.012L52.0729 170.404H47.5369L45.4249 161.716L43.2409 170.404H38.7289L35.0809 157.012H39.1849L41.0809 166.588L43.3369 157.012H47.6809L49.9609 166.54L51.8329 157.012H55.6969ZM59.3259 155.62C58.6059 155.62 58.0139 155.412 57.5499 154.996C57.1019 154.564 56.8779 154.036 56.8779 153.412C56.8779 152.772 57.1019 152.244 57.5499 151.828C58.0139 151.396 58.6059 151.18 59.3259 151.18C60.0299 151.18 60.6059 151.396 61.0539 151.828C61.5179 152.244 61.7499 152.772 61.7499 153.412C61.7499 154.036 61.5179 154.564 61.0539 154.996C60.6059 155.412 60.0299 155.62 59.3259 155.62ZM61.3659 157.012V170.404H57.2619V157.012H61.3659ZM71.8041 166.924V170.404H69.7161C68.2281 170.404 67.0681 170.044 66.2361 169.324C65.4041 168.588 64.9881 167.396 64.9881 165.748V160.42H63.3561V157.012H64.9881V153.748H69.0921V157.012H71.7801V160.42H69.0921V165.796C69.0921 166.196 69.1881 166.484 69.3801 166.66C69.5721 166.836 69.8921 166.924 70.3401 166.924H71.8041ZM82.3221 156.868C83.8581 156.868 85.0901 157.38 86.0181 158.404C86.9461 159.412 87.4101 160.804 87.4101 162.58V170.404H83.3301V163.132C83.3301 162.236 83.0981 161.54 82.6341 161.044C82.1701 160.548 81.5461 160.3 80.7621 160.3C79.9781 160.3 79.3541 160.548 78.8901 161.044C78.4261 161.54 78.1941 162.236 78.1941 163.132V170.404H74.0901V152.644H78.1941V158.812C78.6101 158.22 79.1781 157.748 79.8981 157.396C80.6181 157.044 81.4261 156.868 82.3221 156.868ZM99.3799 153.556V163.636C99.3799 164.644 99.6279 165.42 100.124 165.964C100.62 166.508 101.348 166.78 102.308 166.78C103.268 166.78 104.004 166.508 104.516 165.964C105.028 165.42 105.284 164.644 105.284 163.636V153.556H109.388V163.612C109.388 165.116 109.068 166.388 108.428 167.428C107.788 168.468 106.924 169.252 105.836 169.78C104.764 170.308 103.564 170.572 102.236 170.572C100.908 170.572 99.7159 170.316 98.6599 169.804C97.6199 169.276 96.7959 168.492 96.1879 167.452C95.5799 166.396 95.2759 165.116 95.2759 163.612V153.556H99.3799ZM117.718 170.596C116.55 170.596 115.51 170.396 114.598 169.996C113.686 169.596 112.966 169.052 112.438 168.364C111.91 167.66 111.614 166.876 111.55 166.012H115.606C115.654 166.476 115.87 166.852 116.254 167.14C116.638 167.428 117.11 167.572 117.67 167.572C118.182 167.572 118.574 167.476 118.846 167.284C119.134 167.076 119.278 166.812 119.278 166.492C119.278 166.108 119.078 165.828 118.678 165.652C118.278 165.46 117.63 165.252 116.734 165.028C115.774 164.804 114.974 164.572 114.334 164.332C113.694 164.076 113.142 163.684 112.678 163.156C112.214 162.612 111.982 161.884 111.982 160.972C111.982 160.204 112.19 159.508 112.606 158.884C113.038 158.244 113.662 157.74 114.478 157.372C115.31 157.004 116.294 156.82 117.43 156.82C119.11 156.82 120.43 157.236 121.39 158.068C122.366 158.9 122.926 160.004 123.07 161.38H119.278C119.214 160.916 119.006 160.548 118.654 160.276C118.318 160.004 117.87 159.868 117.31 159.868C116.83 159.868 116.462 159.964 116.206 160.156C115.95 160.332 115.822 160.58 115.822 160.9C115.822 161.284 116.022 161.572 116.422 161.764C116.838 161.956 117.478 162.148 118.342 162.34C119.334 162.596 120.142 162.852 120.766 163.108C121.39 163.348 121.934 163.748 122.398 164.308C122.878 164.852 123.126 165.588 123.142 166.516C123.142 167.3 122.918 168.004 122.47 168.628C122.038 169.236 121.406 169.716 120.574 170.068C119.758 170.42 118.806 170.596 117.718 170.596ZM131.053 152.956L130.573 164.452H127.093L126.613 152.956H131.053ZM128.893 170.596C128.173 170.596 127.581 170.388 127.117 169.972C126.669 169.54 126.445 169.012 126.445 168.388C126.445 167.748 126.669 167.212 127.117 166.78C127.581 166.348 128.173 166.132 128.893 166.132C129.597 166.132 130.173 166.348 130.621 166.78C131.085 167.212 131.317 167.748 131.317 168.388C131.317 169.012 131.085 169.54 130.621 169.972C130.173 170.388 129.597 170.596 128.893 170.596Z" fill="white"/>
<defs>
<clipPath id="clip0_2_1214">
<rect width="49.8861" height="60.373" fill="white" transform="matrix(-0.159712 0.987164 -0.996099 -0.0882391 93.85 33.0972)"/>
</clipPath>
<clipPath id="clip1_2_1214">
<rect width="31.3698" height="28.9445" fill="white" transform="matrix(-0.873172 -0.487412 0.7139 -0.700247 272.285 341.386)"/>
</clipPath>
</defs>
</svg>
